<?xml version="1.0" standalone="no"?>
<!DOCTYPE svg PUBLIC "-//W3C//DTD SVG 1.1//EN" "http://www.w3.org/Graphics/SVG/1.1/DTD/svg11.dtd" >
<svg xmlns="http://www.w3.org/2000/svg">
<metadata>
<json>
<![CDATA[
{
	"fontFamily": "osc-",
	"majorVersion": 1,
	"minorVersion": 0,
	"version": "Version 1.0",
	"fontId": "osc-",
	"psName": "osc-",
	"subFamily": "Regular",
	"fullName": "osc-",
	"description": "Font generated by IcoMoon."
}
]]>
</json>
</metadata>
<defs>
<font id="osc-" horiz-adv-x="1024">
<font-face units-per-em="1024" ascent="960" descent="-64" />
<missing-glyph horiz-adv-x="1024" />
<glyph unicode="&#x20;" horiz-adv-x="512" d="" />
<glyph unicode="&#xe900;" glyph-name="osc_arrow1-down" data-tags="osc_arrow1-down" d="M567.467 157.44c-14.13-14.335-33.761-23.216-55.467-23.216s-41.336 8.881-55.458 23.207l-0.009 0.009-435.2 446.080c-13.131 13.57-21.223 32.084-21.223 52.489 0 41.709 33.811 75.52 75.52 75.52 0.411 0 0.822-0.003 1.231-0.010l-0.062 0.001h870.187c0.348 0.006 0.758 0.009 1.17 0.009 41.709 0 75.52-33.811 75.52-75.52 0-20.405-8.092-38.919-21.243-52.51l0.020 0.021-182.827-187.52z" />
<glyph unicode="&#xe901;" glyph-name="osc_arrow1-left" data-tags="osc_arrow1-left" d="M219.307 395.307c-14.324 14.096-23.199 33.692-23.199 55.36s8.875 41.264 23.188 55.35l0.010 0.010 446.080 434.987c13.569 13.129 32.083 21.22 52.486 21.22 41.709 0 75.52-33.811 75.52-75.52 0-0.335-0.002-0.67-0.007-1.004l0.001 0.051v-870.187c0.004-0.283 0.006-0.618 0.006-0.953 0-41.709-33.811-75.52-75.52-75.52-20.403 0-38.917 8.091-52.507 21.24l0.021-0.020-187.52 182.827z" />
<glyph unicode="&#xe902;" glyph-name="osc_arrow1-right" data-tags="osc_arrow1-right" d="M832 506.027c14.43-14.046 23.382-33.658 23.382-55.36s-8.952-41.314-23.365-55.343l-0.017-0.017-446.293-434.987c-13.569-13.129-32.083-21.22-52.486-21.22-41.709 0-75.52 33.811-75.52 75.52 0 0.335 0.002 0.67 0.007 1.004l-0.001-0.051v870.187c-0.004 0.283-0.006 0.618-0.006 0.953 0 41.709 33.811 75.52 75.52 75.52 20.403 0 38.917-8.091 52.507-21.24l-0.021 0.020 187.52-182.827z" />
<glyph unicode="&#xe903;" glyph-name="osc_arrow1-up" data-tags="osc_arrow1-up" d="M453.333 708.267c14.13 14.335 33.761 23.216 55.467 23.216s41.336-8.881 55.458-23.207l0.009-0.009 434.987-446.080c13.131-13.57 21.223-32.084 21.223-52.489 0-41.709-33.811-75.52-75.52-75.52-0.411 0-0.822 0.003-1.231 0.010l0.062-0.001h-869.973c-0.348-0.006-0.758-0.009-1.17-0.009-41.709 0-75.52 33.811-75.52 75.52 0 20.405 8.092 38.919 21.243 52.51l-0.020-0.021 182.827 187.52z" />
<glyph unicode="&#xe904;" glyph-name="osc_arrow2-down" data-tags="osc_arrow2-down" d="M807.467 262.613c-5.425 5.534-12.979 8.964-21.333 8.964s-15.908-3.43-21.329-8.959l-222.512-222.512v888.747c0 16.731-13.563 30.293-30.293 30.293s-30.293-13.563-30.293-30.293v0-888.747l-222.507 222.507c-5.46 5.46-13.002 8.837-21.333 8.837-16.662 0-30.17-13.508-30.17-30.17 0-8.331 3.377-15.874 8.837-21.333l274.133-274.133c5.425-5.534 12.979-8.964 21.333-8.964s15.908 3.43 21.329 8.959l274.138 274.138c5.534 5.425 8.964 12.979 8.964 21.333s-3.43 15.908-8.959 21.329l-0.005 0.005z" />
<glyph unicode="&#xe905;" glyph-name="osc_arrow2-left" data-tags="osc_arrow2-left" d="M993.28 478.293h-888.747l222.507 222.507c5.43 5.473 8.786 13.011 8.786 21.333s-3.356 15.86-8.788 21.335l0.002-0.002c-5.425 5.534-12.979 8.964-21.333 8.964s-15.908-3.43-21.329-8.959l-274.352-274.138c-5.43-5.473-8.786-13.011-8.786-21.333s3.356-15.86 8.788-21.335l274.345-274.131c5.392-5.53 12.915-8.96 21.239-8.96 0.033 0 0.066 0 0.099 0h-0.005c16.656 0.099 30.12 13.623 30.12 30.293 0 8.322-3.356 15.861-8.788 21.336l-222.505 222.505h888.747c16.731 0 30.293 13.563 30.293 30.293s-13.563 30.293-30.293 30.293v0z" />
<glyph unicode="&#xe906;" glyph-name="osc_arrow2-right" data-tags="osc_arrow2-right" d="M1014.613 469.333l-274.133 274.133c-5.595 6.677-13.938 10.892-23.265 10.892-16.731 0-30.293-13.563-30.293-30.293 0-9.327 4.215-17.67 10.845-23.227l0.047-0.038 222.507-222.507h-888.747c-16.731 0-30.293-13.563-30.293-30.293s13.563-30.293 30.293-30.293v0h888.747l-222.72-222.507c-6.677-5.595-10.892-13.938-10.892-23.265 0-16.731 13.563-30.293 30.293-30.293 9.327 0 17.67 4.215 23.227 10.845l0.038 0.047 274.347 274.133c5.43 5.473 8.786 13.011 8.786 21.333s-3.356 15.86-8.788 21.335l0.002-0.002z" />
<glyph unicode="&#xe907;" glyph-name="osc_arrow2-up" data-tags="osc_arrow2-up" d="M807.467 676.053l-274.133 274.133c-5.425 5.534-12.979 8.964-21.333 8.964s-15.908-3.43-21.329-8.959l-274.138-274.138c-5.46-5.46-8.837-13.002-8.837-21.333 0-16.662 13.508-30.17 30.17-30.17 8.331 0 15.874 3.377 21.333 8.837l222.507 222.507v-888.747c0-16.731 13.563-30.293 30.293-30.293s30.293 13.563 30.293 30.293v0 888.747l222.507-222.507c5.438-5.513 12.984-8.936 21.329-8.96h0.005c16.656 0.099 30.12 13.623 30.12 30.293 0 8.322-3.356 15.861-8.788 21.336l0.002-0.002z" />
<glyph unicode="&#xe908;" glyph-name="osc_bell_fill" data-tags="osc_bell_fill" d="M853.333 284.587v334.080c0 188.513-152.82 341.333-341.333 341.333v0 0c-188.513 0-341.333-152.82-341.333-341.333v0-334.080l-117.333-184.533h917.333zM512-64c77.644 0 140.587 62.943 140.587 140.587v0h-281.387c0 0 0 0 0 0 0-77.644 62.943-140.587 140.587-140.587 0.075 0 0.15 0 0.225 0h-0.012z" />
<glyph unicode="&#xe909;" glyph-name="osc_bell-line" data-tags="osc_bell-line" d="M970.027 100.053l-116.693 184.533v334.080c0 188.513-152.82 341.333-341.333 341.333v0 0c-188.513 0-341.333-152.82-341.333-341.333v0-334.080l-117.333-184.533h288c0-94.257 76.41-170.667 170.667-170.667s170.667 76.41 170.667 170.667v0zM221.867 252.16l9.387 14.933v351.573c0 154.934 125.599 280.533 280.533 280.533s280.533-125.599 280.533-280.533v0-352l9.387-14.933 58.24-91.52h-696.32zM512-2.56c-58.053 0.202-105.526 45.224-109.633 102.257l-0.021 0.356h219.093c-4.121-57.316-51.478-102.296-109.408-102.613h-0.032z" />
<glyph unicode="&#xe90a;" glyph-name="osc_cancel" data-tags="osc_cancel" d="M512 898.133c249.243-0.243 451.2-202.35 451.2-451.626 0-249.427-202.2-451.627-451.627-451.627s-451.627 202.2-451.627 451.627c0 0.075 0 0.15 0 0.224v-0.011c0.243 249.361 202.445 451.413 451.84 451.413 0.075 0 0.15 0 0.225 0h-0.012zM512 958.72c-282.77 0-512-229.23-512-512s229.23-512 512-512c282.77 0 512 229.23 512 512v0c0 282.77-229.23 512-512 512v0zM554.667 450.56l144.64 144.64c4.372 5.215 7.028 11.998 7.028 19.402 0 16.731-13.563 30.293-30.293 30.293-7.403 0-14.187-2.656-19.449-7.067l0.047 0.038-144.64-144.427-144.64 144.64c-5.595 6.677-13.938 10.892-23.265 10.892-16.731 0-30.293-13.563-30.293-30.293 0-9.327 4.215-17.67 10.845-23.227l0.047-0.038 144.64-144.853-144.427-144.427c-5.43-5.473-8.786-13.012-8.786-21.334 0-16.669 13.464-30.194 30.11-30.293h0.009c8.309 0.038 15.832 3.368 21.339 8.752l-0.006-0.006 144.427 144.64 144.427-144.64c5.215-4.372 11.998-7.028 19.402-7.028 16.731 0 30.293 13.563 30.293 30.293 0 7.403-2.656 14.187-7.067 19.449l0.038-0.047z" />
<glyph unicode="&#xe90b;" glyph-name="osc_check" data-tags="osc_check" d="M1015.253 765.013c-5.665 5.619-13.467 9.091-22.080 9.091s-16.415-3.472-22.082-9.093l0.002 0.002-593.28-594.347-324.267 325.12c-5.608 5.658-13.381 9.161-21.973 9.161s-16.366-3.503-21.971-9.159l-0.002-0.002c-5.722-5.618-9.269-13.435-9.269-22.080s3.547-16.462 9.264-22.075l346.032-346.032c5.458-5.517 12.973-8.99 21.299-9.173l0.034-0.001c8.369 0.135 15.899 3.62 21.328 9.168l0.005 0.005 616.96 615.253c5.619 5.665 9.091 13.467 9.091 22.080s-3.472 16.415-9.093 22.082l0.002-0.002z" />
<glyph unicode="&#xe90c;" glyph-name="osc_complated" data-tags="osc_complated" d="M512 898.133c249.243-0.243 451.2-202.35 451.2-451.626 0-249.427-202.2-451.627-451.627-451.627s-451.627 202.2-451.627 451.627c0 0.075 0 0.15 0 0.224v-0.011c0.243 249.361 202.445 451.413 451.84 451.413 0.075 0 0.15 0 0.225 0h-0.012zM512 958.72c-282.77 0-512-229.23-512-512s229.23-512 512-512c282.77 0 512 229.23 512 512v0c0 282.77-229.23 512-512 512v0zM731.307 592.427c-5.425 5.534-12.979 8.964-21.333 8.964s-15.908-3.43-21.329-8.959l-0.005-0.005-219.307-219.947-114.347 114.347c-5.215 4.372-11.998 7.028-19.402 7.028-16.731 0-30.293-13.563-30.293-30.293 0-7.403 2.656-14.187 7.067-19.449l-0.038 0.047 135.68-135.68c5.295-5.869 12.858-9.603 21.296-9.813l0.037-0.001c8.35 0.024 15.895 3.447 21.33 8.957l0.003 0.003 240.64 242.133c5.534 5.425 8.964 12.979 8.964 21.333s-3.43 15.908-8.959 21.329l-0.005 0.005z" />
<glyph unicode="&#xe90d;" glyph-name="osc_delete" data-tags="osc_delete" d="M837.973 675.413c-16.682-0.12-30.173-13.611-30.293-30.282v-591.584c0-30.516-24.738-55.253-55.253-55.253h-481.28c-30.516 0-55.253 24.738-55.253 55.253v0 591.573c0.068 0.761 0.107 1.646 0.107 2.54 0 16.731-13.563 30.293-30.293 30.293s-30.293-13.563-30.293-30.293c0-0.894 0.039-1.779 0.115-2.653l-0.008 0.114v-591.573c0-63.859 51.768-115.627 115.627-115.627h481.28c0 0 0 0 0 0 63.902 0 115.718 51.742 115.84 115.615v591.585c-0.12 16.682-13.611 30.173-30.282 30.293h-0.011zM903.893 792.96h-157.227v89.813c0 0.001 0 0.003 0 0.005 0 42.351-34.091 76.74-76.328 77.222h-317.059c-42.602-0.121-77.106-34.624-77.227-77.215v-89.825h-156.16c-0.761 0.068-1.646 0.107-2.54 0.107-16.731 0-30.293-13.563-30.293-30.293s13.563-30.293 30.293-30.293c0.894 0 1.779 0.039 2.653 0.115l-0.114-0.008h784c15.601 1.352 27.753 14.35 27.753 30.187s-12.152 28.835-27.64 30.179l-0.114 0.008zM336.64 882.773c0.116 9.187 7.472 16.618 16.618 16.853h317.035c9.26-0.119 16.735-7.594 16.853-16.842v-89.824h-350.507zM644.693 216.747v343.68c0.068 0.761 0.107 1.646 0.107 2.54 0 16.731-13.563 30.293-30.293 30.293s-30.293-13.563-30.293-30.293c0-0.894 0.039-1.779 0.115-2.653l-0.008 0.114v-343.68c1.352-15.601 14.35-27.753 30.187-27.753s28.835 12.152 30.179 27.64l0.008 0.114zM439.253 216.747v343.68c0.068 0.761 0.107 1.646 0.107 2.54 0 16.731-13.563 30.293-30.293 30.293s-30.293-13.563-30.293-30.293c0-0.894 0.039-1.779 0.115-2.653l-0.008 0.114v-343.68c1.352-15.601 14.35-27.753 30.187-27.753s28.835 12.152 30.179 27.64l0.008 0.114z" />
<glyph unicode="&#xe90e;" glyph-name="osc_drawer" data-tags="osc_drawer" d="M992 762.88h-960c-0.761-0.068-1.646-0.107-2.54-0.107-16.731 0-30.293 13.563-30.293 30.293s13.563 30.293 30.293 30.293c0.894 0 1.779-0.039 2.653-0.115l-0.114 0.008h960c15.601-1.352 27.753-14.35 27.753-30.187s-12.152-28.835-27.64-30.179l-0.114-0.008zM992 417.707h-960c-16.731 0-30.293 13.563-30.293 30.293s13.563 30.293 30.293 30.293v0h960c16.731 0 30.293-13.563 30.293-30.293s-13.563-30.293-30.293-30.293v0zM992 72.747h-960c-0.761-0.068-1.646-0.107-2.54-0.107-16.731 0-30.293 13.563-30.293 30.293s13.563 30.293 30.293 30.293c0.894 0 1.779-0.039 2.653-0.115l-0.114 0.008h960c15.601-1.352 27.753-14.35 27.753-30.187s-12.152-28.835-27.64-30.179l-0.114-0.008z" />
<glyph unicode="&#xe90f;" glyph-name="osc_edit" data-tags="osc_edit" d="M986.88 742.4c16.63 21.385 26.661 48.619 26.661 78.195 0 70.692-57.308 128-128 128-29.523 0-56.712-9.995-78.367-26.786l0.292 0.218-60.8-61.44 179.627-179.413zM96.866 211.382l618.181 618.181 179.662-179.662-618.181-618.181-179.662 179.662zM0-64.853l65.707 245.333 179.627-179.627-245.333-65.707z" />
<glyph unicode="&#xe910;" glyph-name="osc_error" data-tags="osc_error" d="M511.787 898.159c249.323 0 451.439-202.116 451.439-451.439s-202.116-451.439-451.439-451.439c-249.323 0-451.439 202.116-451.439 451.439 0 0.075 0 0.15 0 0.225v-0.012c0.364 249.133 202.289 450.983 451.415 451.225h0.023zM511.787 958.721c-282.652 0-511.787-229.135-511.787-511.787s229.135-511.787 511.787-511.787c282.652 0 511.787 229.135 511.787 511.787v0c0 282.652-229.135 511.787-511.787 511.787v0zM511.787 378.056c0 0 0 0-0.001 0-16.649 0-30.159 13.436-30.28 30.056v255.904c0 16.724 13.557 30.281 30.281 30.281s30.281-13.557 30.281-30.281v0-255.893c-0.121-16.632-13.631-30.067-30.28-30.067 0 0-0.001 0-0.001 0v0zM511.787 207.46c-0.038 0-0.082 0-0.127 0-8.271 0-15.763 3.34-21.199 8.745l0.001-0.001c-2.775 2.722-5.011 5.983-6.538 9.616l-0.072 0.194c-1.446 3.4-2.304 7.352-2.346 11.499v0.016c0.050 8.342 3.465 15.876 8.954 21.323l0.002 0.002c5.471 5.428 13.006 8.783 21.325 8.783 16.663 0 30.182-13.458 30.28-30.098v-0.009c-0.042-4.163-0.9-8.115-2.422-11.718l0.076 0.203c-1.687-3.795-3.91-7.043-6.617-9.816l0.006 0.007c-2.781-2.674-6.024-4.893-9.593-6.522l-0.216-0.088c-3.283-1.351-7.094-2.135-11.088-2.135-0.15 0-0.3 0.001-0.45 0.003h0.023z" />
<glyph unicode="&#xe911;" glyph-name="osc_info" data-tags="osc_info" d="M512 898.133c249.426 0 451.627-202.2 451.627-451.627s-202.2-451.627-451.627-451.627c-249.427 0-451.627 202.2-451.627 451.627 0 0.075 0 0.15 0 0.225v-0.012c0.364 249.237 202.373 451.171 451.604 451.413h0.023zM512 958.72c-282.77 0-512-229.23-512-512s229.23-512 512-512c282.77 0 512 229.23 512 512v0c0 282.77-229.23 512-512 512v0zM512 207.147c-0.038 0-0.082 0-0.127 0-8.275 0-15.769 3.341-21.208 8.748l0.001-0.001c-2.776 2.723-5.013 5.986-6.541 9.62l-0.072 0.194c-1.446 3.402-2.305 7.355-2.347 11.504v0.016c0.050 8.345 3.466 15.883 8.958 21.331l0.002 0.002c5.405 5.408 12.874 8.753 21.125 8.753 2.189 0 4.324-0.236 6.379-0.683l-0.197 0.036c2.065-0.266 3.938-0.868 5.64-1.751l-0.094 0.044c2.038-0.778 3.797-1.712 5.419-2.829l-0.086 0.056c1.67-1.156 3.133-2.347 4.496-3.642l-0.016 0.015c5.494-5.451 8.91-12.988 8.96-21.324v-0.009c-0.042-4.165-0.901-8.118-2.423-11.723l0.076 0.203c-1.688-3.797-3.912-7.045-6.62-9.82l0.006 0.007c-2.782-2.675-6.027-4.895-9.597-6.525l-0.216-0.088c-3.284-1.352-7.097-2.136-11.093-2.136-0.15 0-0.3 0.001-0.45 0.003h0.023zM512 355.2c0 0 0 0-0.001 0-16.656 0-30.172 13.441-30.293 30.068v82.999c0 16.731 13.563 30.293 30.293 30.293v0c0.006 0 0.014 0 0.021 0 42.651 0 77.227 34.576 77.227 77.227s-34.576 77.227-77.227 77.227c-33.158 0-61.435-20.897-72.38-50.24l-0.174-0.534c-4.441-11.577-15.465-19.645-28.373-19.645-16.741 0-30.312 13.571-30.312 30.312 0 3.832 0.711 7.499 2.009 10.874l-0.070-0.207c19.932 53 70.199 90.026 129.114 90.026 75.994 0 137.6-61.606 137.6-137.6 0-65.196-45.341-119.801-106.211-134.004l-0.93-0.183v-56.107c0-0.063 0.001-0.138 0.001-0.213 0-16.731-13.563-30.293-30.293-30.293 0 0-0.001 0-0.001 0v0z" />
<glyph unicode="&#xe912;" glyph-name="osc_inprogress" data-tags="osc_inprogress" d="M512 686.507c-0.063 0-0.138-0.001-0.213-0.001-16.613 0-30.080 13.467-30.080 30.080 0 0 0 0.001 0 0.001v0 184.747c0 16.731 13.563 30.293 30.293 30.293s30.293-13.563 30.293-30.293v0-184.747c-0.121-16.639-13.637-30.080-30.293-30.080 0 0-0.001 0-0.001 0v0zM321.067 607.787c-0.012 0-0.026 0-0.039 0-8.302 0-15.825 3.34-21.297 8.75l0.003-0.003-130.773 130.133c-4.372 5.215-7.028 11.998-7.028 19.402 0 16.731 13.563 30.293 30.293 30.293 7.403 0 14.187-2.656 19.449-7.067l-0.047 0.038 130.56-130.56c5.43-5.473 8.786-13.012 8.786-21.334 0-16.669-13.464-30.194-30.11-30.293h-0.009zM241.493 417.067h-184.747c-15.601 1.352-27.753 14.35-27.753 30.187s12.152 28.835 27.64 30.179l0.114 0.008h184.747c0.761 0.068 1.646 0.107 2.54 0.107 16.731 0 30.293-13.563 30.293-30.293s-13.563-30.293-30.293-30.293c-0.894 0-1.779 0.039-2.653 0.115l0.114-0.008zM189.653 95.36c-0.038 0-0.082 0-0.127 0-8.275 0-15.769 3.341-21.208 8.748l0.001-0.001c-5.38 5.496-8.7 13.027-8.7 21.333s3.32 15.837 8.705 21.339l-0.005-0.005 130.347 130.56c5.595 6.677 13.938 10.892 23.265 10.892 16.731 0 30.293-13.563 30.293-30.293 0-9.327-4.215-17.67-10.845-23.227l-0.047-0.038-130.347-130.56c-5.405-5.405-12.871-8.747-21.119-8.747-0.075 0-0.151 0-0.226 0.001h0.012zM512-38.4c-16.682 0.12-30.173 13.611-30.293 30.282v184.758c0 16.731 13.563 30.293 30.293 30.293s30.293-13.563 30.293-30.293v0-184.747c-0.12-16.682-13.611-30.173-30.282-30.293h-0.011zM832 94.507c-0.116-0.002-0.253-0.003-0.39-0.003-8.192 0-15.603 3.346-20.94 8.746l-0.003 0.003-129.92 131.413c-6.677 5.595-10.892 13.938-10.892 23.265 0 16.731 13.563 30.293 30.293 30.293 9.327 0 17.67-4.215 23.227-10.845l0.038-0.047 129.92-131.413c5.534-5.425 8.964-12.979 8.964-21.333s-3.43-15.908-8.959-21.329l-0.005-0.005c-5.34-5.403-12.751-8.749-20.943-8.749-0.137 0-0.274 0.001-0.411 0.003h0.021zM966.187 415.787h-184.533c-0.761-0.068-1.646-0.107-2.54-0.107-16.731 0-30.293 13.563-30.293 30.293s13.563 30.293 30.293 30.293c0.894 0 1.779-0.039 2.653-0.115l-0.114 0.008h184.533c0.761 0.068 1.646 0.107 2.54 0.107 16.731 0 30.293-13.563 30.293-30.293s-13.563-30.293-30.293-30.293c-0.894 0-1.779 0.039-2.653 0.115l0.114-0.008zM704 606.933c-16.656 0.099-30.12 13.623-30.12 30.293 0 8.322 3.356 15.861 8.788 21.336l129.491 130.771c5.215 4.372 11.998 7.028 19.402 7.028 16.731 0 30.293-13.563 30.293-30.293 0-7.403-2.656-14.187-7.067-19.449l0.038 0.047-129.493-130.987c-5.501-5.379-13.025-8.709-21.326-8.747h-0.007z" />
<glyph unicode="&#xe913;" glyph-name="osc_logo" data-tags="osc_logo" d="M618.667 487.253c-9.408 9.026-20.616 16.26-33.023 21.098l-0.684 0.235c-12.379 4.596-26.679 7.256-41.6 7.256s-29.221-2.66-42.452-7.53l0.852 0.275c-25.506-9.349-45.564-28.364-56.078-52.495l-0.242-0.625c-5.272-11.987-8.34-25.962-8.34-40.653 0-0.708 0.007-1.415 0.021-2.12l-0.002 0.106c-0.008-0.475-0.012-1.035-0.012-1.596 0-14.833 3.064-28.95 8.595-41.753l-0.263 0.683c5.905-12.807 13.958-23.66 23.807-32.563l0.086-0.077c9.442-8.964 20.639-16.187 33.008-21.089l0.699-0.244c12.345-4.863 26.643-7.682 41.6-7.682s29.255 2.819 42.392 7.955l-0.792-0.273c13.042 5.231 24.226 12.442 33.765 21.387l-0.058-0.054c9.386 9.152 17.012 20.058 22.355 32.196l0.258 0.658c5.268 12.12 8.332 26.237 8.332 41.070 0 0.561-0.004 1.122-0.013 1.681l0.001-0.084c0.013 0.599 0.020 1.306 0.020 2.014 0 14.691-3.068 28.665-8.599 41.317l0.259-0.665c-6.056 12.37-14.083 22.852-23.791 31.484l-0.102 0.089zM597.333 389.973c-2.239-8.161-5.83-15.282-10.564-21.484l0.11 0.151c-4.653-6.045-10.497-10.934-17.207-14.373l-0.286-0.133c-7.356-3.639-16.016-5.768-25.173-5.768s-17.818 2.129-25.513 5.919l0.339-0.151c-7.031 3.512-12.888 8.413-17.404 14.384l-0.089 0.123c-4.623 6.052-8.215 13.172-10.35 20.897l-0.103 0.436c-2.166 6.733-3.414 14.478-3.414 22.515 0 0.11 0 0.219 0.001 0.329v-0.017c0.1 7.649 1.341 14.974 3.56 21.859l-0.146-0.525c2.288 8.155 5.874 15.268 10.571 21.496l-0.117-0.162c4.658 6.039 10.501 10.928 17.207 14.373l0.287 0.134c7.405 3.369 16.060 5.333 25.173 5.333s17.768-1.964 25.564-5.491l-0.391 0.158c6.957-3.641 12.788-8.518 17.407-14.392l0.087-0.114c4.58-6.065 8.165-13.179 10.344-20.882l0.109-0.451c2.073-6.36 3.314-13.684 3.413-21.283l0.001-0.050c0-0.093 0.001-0.202 0.001-0.312 0-8.037-1.248-15.782-3.562-23.052l0.148 0.538zM784.64 515.2c-0.427 0.012-0.93 0.018-1.434 0.018-12.338 0-23.759-3.923-33.085-10.589l0.173 0.117c-9.726-7.187-17.473-16.505-22.638-27.295l-0.189-0.438v32.64h-46.933v-195.413h48.853v104.533c0.154 5.147 0.923 10.048 2.236 14.721l-0.103-0.428c3.198 13.794 11.723 25.177 23.238 32.086l0.228 0.127c7.065 3.8 15.461 6.033 24.378 6.033 0.88 0 1.755-0.022 2.625-0.065l-0.122 0.005c1.023 0.098 2.212 0.155 3.413 0.155s2.39-0.056 3.563-0.166l-0.15 0.011c3.103-0.292 5.933-0.819 8.668-1.575l-0.348 0.082v44.373c-0.865 0.113-1.865 0.177-2.88 0.177s-2.015-0.064-2.996-0.19l0.116 0.012zM1013.547 454.827c-10.756 24.756-30.814 43.771-55.648 52.904l-0.672 0.216c-12.379 4.596-26.679 7.256-41.6 7.256s-29.221-2.66-42.452-7.53l0.852 0.275c-25.506-9.349-45.564-28.364-56.078-52.495l-0.242-0.625c-5.272-11.987-8.34-25.962-8.34-40.653 0-0.708 0.007-1.415 0.021-2.12l-0.002 0.106c-0.008-0.475-0.012-1.035-0.012-1.596 0-14.833 3.064-28.95 8.595-41.753l-0.263 0.683c5.513-12.829 13.152-23.75 22.581-32.823l0.032-0.031c9.442-8.964 20.639-16.187 33.008-21.089l0.699-0.244c12.345-4.863 26.643-7.682 41.6-7.682s29.255 2.819 42.392 7.955l-0.792-0.273c13.042 5.231 24.226 12.442 33.765 21.387l-0.058-0.054c9.386 9.152 17.012 20.058 22.355 32.196l0.258 0.658c5.268 12.12 8.332 26.237 8.332 41.070 0 0.561-0.004 1.122-0.013 1.681l0.001-0.084c0.013 0.599 0.020 1.306 0.020 2.014 0 14.691-3.068 28.665-8.599 41.317l0.259-0.665zM968.747 390.827c-2.239-8.161-5.83-15.282-10.564-21.484l0.11 0.151c-4.653-6.045-10.497-10.934-17.207-14.373l-0.286-0.133c-7.356-3.639-16.016-5.768-25.173-5.768s-17.818 2.129-25.513 5.919l0.339-0.151c-6.996 3.573-12.841 8.462-17.405 14.388l-0.088 0.119c-4.623 6.052-8.215 13.172-10.35 20.897l-0.103 0.436c-2.166 6.733-3.414 14.478-3.414 22.515 0 0.11 0 0.219 0.001 0.329v-0.017c0.1 7.649 1.341 14.974 3.56 21.859l-0.146-0.525c2.288 8.155 5.874 15.268 10.571 21.496l-0.117-0.162c4.705 5.989 10.536 10.866 17.202 14.367l0.291 0.139c7.405 3.369 16.060 5.333 25.173 5.333s17.768-1.964 25.564-5.491l-0.391 0.158c6.957-3.641 12.788-8.518 17.407-14.392l0.087-0.114c4.58-6.065 8.165-13.179 10.344-20.882l0.109-0.451c2.073-6.36 3.314-13.684 3.413-21.283l0.001-0.050c0.005-0.339 0.009-0.739 0.009-1.14 0-8.046-1.251-15.8-3.57-23.078l0.148 0.538zM343.040 499.84c3.634 5.576 5.795 12.4 5.795 19.729 0 0.564-0.013 1.125-0.038 1.683l0.003-0.079c0.011 0.318 0.017 0.691 0.017 1.067 0 6.81-1.994 13.155-5.431 18.481l0.081-0.134c-3.596 4.876-8.076 8.879-13.232 11.837l-0.208 0.11c-5.368 2.94-11.614 5.106-18.235 6.145l-0.325 0.042c-5.967 0.95-12.846 1.493-19.852 1.493-0.071 0-0.141 0-0.212 0h-117.322v-32c1.986 0.076 4.318 0.119 6.66 0.119 47.95 0 91.673-18.1 124.708-47.841l-0.168 0.149h3.413c7.401 1.059 14.086 3.229 20.202 6.355l-0.362-0.168 5.547 3.627c3.425 2.711 6.38 5.801 8.867 9.251l0.093 0.136zM174.080 484.053v-88.533c25.003 25.413 54.008 46.79 86.013 63.129l1.88 0.871c-21.999 15.533-49.368 24.827-78.908 24.827-3.161 0-6.298-0.106-9.406-0.316l0.421 0.023zM446.293 487.893c-0.021 123.814-100.397 224.177-224.213 224.177-123.83 0-224.213-100.384-224.213-224.213s100.384-224.213 224.213-224.213c49.461 0 95.182 16.016 132.259 43.144l-0.632-0.441-61.44 112.853c-45.058-29.926-83.914-64.24-117.576-103.171l-0.611-0.722h-51.413v288.213h170.667c0.132 0 0.289 0.001 0.445 0.001 13.84 0 27.299-1.633 40.194-4.717l-1.172 0.237c12.839-2.719 24.202-7.527 34.308-14.104l-0.388 0.237c9.946-6.599 18.004-15.271 23.703-25.444l0.19-0.369c5.667-10.479 8.998-22.94 8.998-36.178 0-0.856-0.014-1.709-0.042-2.559l0.003 0.124c0.069-1.19 0.108-2.581 0.108-3.982 0-18.133-6.576-34.73-17.474-47.536l0.086 0.104c-12.472-13.446-29.014-22.958-47.66-26.577l-0.554-0.089 59.733-99.413c32.637 38.495 52.482 88.734 52.482 143.608 0 0.363-0.001 0.725-0.003 1.088v-0.056z" />
<glyph unicode="&#xe914;" glyph-name="osc_pin-fill" data-tags="osc_pin-fill" d="M864 326.187l-171.093 142.293v392.107l64 99.413h-512.853l64-99.413v-392.107l-171.093-142.293h333.227v-392.96h60.587v392.96h333.227z" />
<glyph unicode="&#xe915;" glyph-name="osc_pin-line" data-tags="osc_pin-line" d="M878.080 327.893l-170.667 141.867v391.040l64 99.2h-512l64-99.2v-391.467l-170.667-141.867h332.587v-391.467h60.373v391.893zM362.667 423.253l21.333 18.133v437.333l-9.813 14.933-3.627 5.973h290.773l-3.84-5.973-9.813-14.933v-437.333l21.333-18.133 42.667-34.987h-391.68z" />
<glyph unicode="&#xe916;" glyph-name="osc_plus" data-tags="osc_plus" d="M993.067 479.147h-449.707v449.707c0 17.202-13.945 31.147-31.147 31.147s-31.147-13.945-31.147-31.147v0-449.707h-449.92c-17.202 0-31.147-13.945-31.147-31.147s13.945-31.147 31.147-31.147v0h449.92v-449.707c0-17.202 13.945-31.147 31.147-31.147s31.147 13.945 31.147 31.147v0 449.707h449.707c17.202 0 31.147 13.945 31.147 31.147s-13.945 31.147-31.147 31.147v0z" />
<glyph unicode="&#xe917;" glyph-name="osc_plusminus" data-tags="osc_plusminus" d="M512 958.72c-282.77 0-512-229.23-512-512s229.23-512 512-512c282.77 0 512 229.23 512 512v0c0 282.77-229.23 512-512 512v0zM768 420.48h-225.707v-225.92c0-16.731-13.563-30.293-30.293-30.293s-30.293 13.563-30.293 30.293v0 225.92h-225.707c-0.761-0.068-1.646-0.107-2.54-0.107-16.731 0-30.293 13.563-30.293 30.293s13.563 30.293 30.293 30.293c0.894 0 1.779-0.039 2.653-0.115l-0.114 0.008h225.707v225.707c0 16.731 13.563 30.293 30.293 30.293s30.293-13.563 30.293-30.293v0-225.707h225.707c0.761 0.068 1.646 0.107 2.54 0.107 16.731 0 30.293-13.563 30.293-30.293s-13.563-30.293-30.293-30.293c-0.894 0-1.779 0.039-2.653 0.115l0.114-0.008z" />
<glyph unicode="&#xe918;" glyph-name="osc_reflash" data-tags="osc_reflash" d="M637.013 103.467c-36.478-13.52-78.614-21.343-122.578-21.343-0.932 0-1.862 0.004-2.792 0.011l0.143-0.001c-202.094 0.242-365.901 163.824-366.507 365.809v0.058c-0.021 1.461-0.032 3.185-0.032 4.913 0 19.421 1.485 38.494 4.349 57.113l-0.263-2.079h76.8c11.171 0.748 19.949 9.993 19.949 21.288 0 5.132-1.812 9.842-4.832 13.522l0.030-0.037-42.667 45.653-60.16 64c-3.867 3.898-9.225 6.31-15.147 6.31s-11.28-2.413-15.145-6.309l-0.001-0.001-60.16-64-42.667-45.653c-2.971-3.637-4.772-8.332-4.772-13.447 0-11.585 9.234-21.013 20.743-21.325l0.029-0.001h68.053c-2.949-18.788-4.633-40.457-4.633-62.518 0-234.228 189.879-424.107 424.107-424.107 1.104 0 2.207 0.004 3.309 0.013l-0.169-0.001c52.352 0.003 102.511 9.387 148.889 26.563l-2.969-0.963c11.633 4.446 19.745 15.516 19.745 28.48 0 16.796-13.616 30.412-30.412 30.412-3.832 0-7.498-0.709-10.875-2.002l0.208 0.070zM1002.667 373.973h-70.4c4.172 22.406 6.558 48.185 6.558 74.522 0 235.641-191.025 426.667-426.667 426.667-55.707 0-108.921-10.676-157.707-30.094l2.882 1.012c-11.406-4.447-19.341-15.346-19.341-28.098 0-3.938 0.757-7.699 2.132-11.145l-0.071 0.203c4.499-11.592 15.564-19.66 28.513-19.66 3.859 0 7.55 0.716 10.949 2.024l-0.209-0.071c39.288 15.685 84.822 24.781 132.48 24.781 202.278 0 366.283-163.868 366.506-366.094v-0.021c-0.102-26.263-2.894-51.815-8.113-76.471l0.433 2.444h-73.173c-11.171-0.748-19.949-9.993-19.949-21.288 0-5.132 1.812-9.842 4.832-13.522l-0.030 0.037 42.667-45.653 60.16-64c3.867-3.898 9.225-6.31 15.147-6.31s11.28 2.413 15.145 6.309l0.001 0.001 60.16 64 42.667 45.653c2.979 3.639 4.784 8.34 4.784 13.462 0 11.439-9.003 20.775-20.309 21.309l-0.048 0.002z" />
<glyph unicode="&#xe919;" glyph-name="osc_reserved" data-tags="osc_reserved" d="M512 898.133c249.243-0.243 451.2-202.35 451.2-451.626 0-249.427-202.2-451.627-451.627-451.627s-451.627 202.2-451.627 451.627c0 0.075 0 0.15 0 0.224v-0.011c0.243 249.361 202.445 451.413 451.84 451.413 0.075 0 0.15 0 0.225 0h-0.012zM512 958.72c-282.77 0-512-229.23-512-512s229.23-512 512-512c282.77 0 512 229.23 512 512v0c0 282.77-229.23 512-512 512v0zM730.24 355.413l-188.16 108.587v217.387c-1.352 15.601-14.35 27.753-30.187 27.753s-28.835-12.152-30.179-27.64l-0.008-0.114v-234.667c-0.050-0.48-0.078-1.037-0.078-1.6s0.028-1.12 0.084-1.669l-0.006 0.069c-0.056-0.416-0.089-0.898-0.089-1.387s0.032-0.97 0.095-1.442l-0.006 0.055c0-1.067 0-1.92 0-2.773 0.293-1.064 0.657-1.985 1.105-2.856l-0.039 0.083 1.28-2.56c0.535-0.739 1.033-1.579 1.452-2.463l0.041-0.097 1.92-2.133c0.608-0.821 1.312-1.525 2.106-2.114l0.027-0.019 1.92-1.92 2.773-1.92 203.093-117.333c4.348-2.541 9.571-4.044 15.144-4.053h0.003c0.133-0.002 0.29-0.003 0.447-0.003 16.613 0 30.080 13.467 30.080 30.080 0 11.213-6.135 20.992-15.231 26.166l-0.149 0.078z" />
<glyph unicode="&#xe91a;" glyph-name="osc_search" data-tags="osc_search" d="M1014.827-12.373l-234.667 234.667c67.695 77.316 108.986 179.236 108.986 290.8 0 244.36-198.093 442.453-442.453 442.453s-442.453-198.093-442.453-442.453c0-244.36 198.093-442.453 442.453-442.453 111.564 0 213.484 41.291 291.312 109.425l-0.512-0.439 234.667-234.667c5.392-5.53 12.915-8.96 21.239-8.96 0.033 0 0.066 0 0.099 0h-0.005c16.656 0.099 30.12 13.623 30.12 30.293 0 8.322-3.356 15.861-8.788 21.336l0.002-0.002zM445.013 130.56c-211.948 0.172-383.698 172.029-383.698 384 0 212.077 171.923 384 384 384s384-171.923 384-384c0-105.955-42.913-201.887-112.306-271.364l0.004 0.004c-69.507-69.591-165.575-112.64-271.698-112.64-0.106 0-0.212 0-0.318 0h0.016z" />
<glyph unicode="&#xe91b;" glyph-name="osc_systeminfo" data-tags="osc_systeminfo" d="M564.267 228.053c-15.321-5.81-33.034-9.174-51.534-9.174-0.108 0-0.216 0-0.323 0h0.017c-83.957 0.121-151.985 68.149-152.107 152.095v0.012c0.191 6.833 0.727 13.324 1.598 19.71l-0.104-0.937h33.28c0.13-0.005 0.282-0.008 0.435-0.008 6.834 0 12.373 5.54 12.373 12.373 0 3.527-1.476 6.709-3.843 8.963l-0.005 0.005-25.387 27.093-35.84 37.547c-2.258 2.368-5.437 3.84-8.96 3.84s-6.702-1.472-8.955-3.835l-0.005-0.005-61.227-65.28c-2.379-2.259-3.858-5.446-3.858-8.978 0-6.834 5.54-12.373 12.373-12.373 0.232 0 0.462 0.006 0.69 0.019l-0.032-0.001h27.733c0-6.187 0-12.587 0-18.773 0-117.821 95.513-213.333 213.333-213.333v0c0.127 0 0.277 0 0.427 0 25.882 0 50.667 4.693 73.552 13.276l-1.445-0.475c11.741 4.351 19.957 15.454 19.957 28.475 0 3.714-0.668 7.273-1.892 10.561l0.068-0.209c-3.959 12.572-15.511 21.53-29.156 21.53-4.019 0-7.856-0.777-11.369-2.189l0.205 0.073zM755.84 343.040h-32.853c1.233 8.162 2.077 17.82 2.34 27.622l0.007 0.324c0 117.821-95.513 213.333-213.333 213.333v0c-27.699-0.036-54.164-5.278-78.482-14.8l1.469 0.507c-10.451-4.928-17.555-15.377-17.555-27.485 0-16.731 13.563-30.293 30.293-30.293 3.064 0 6.022 0.455 8.809 1.301l-0.215-0.056c16.38 6.586 35.37 10.406 55.253 10.406 83.888 0 151.893-68.005 151.893-151.893 0-0.058 0-0.117 0-0.175v0.009c0.021-0.938 0.032-2.043 0.032-3.151 0-9.061-0.788-17.938-2.299-26.566l0.133 0.917h-27.733c-0.308 0.028-0.666 0.044-1.028 0.044-6.716 0-12.16-5.444-12.16-12.16 0-3.678 1.633-6.974 4.213-9.204l0.015-0.013 25.387-27.093 35.627-38.613c2.273-2.504 5.54-4.070 9.173-4.070s6.901 1.566 9.164 4.060l0.009 0.010 61.227 65.28c2.703 2.285 4.408 5.678 4.408 9.469 0 6.834-5.54 12.373-12.373 12.373-0.501 0-0.995-0.030-1.48-0.088l0.059 0.006zM606.72 960h-509.227v-1024h829.653v704zM158.72-4.48v904.32h416v-292.053h292.053v-611.84z" />
<glyph unicode="&#xe91c;" glyph-name="osc_table-next" data-tags="osc_table-next" d="M271.787-64c-16.724 0.314-30.162 13.945-30.162 30.715 0 8.399 3.37 16.010 8.832 21.556l459.303 459.729-459.733 459.733c-8.181 5.603-13.479 14.896-13.479 25.426 0 16.966 13.754 30.72 30.72 30.72 10.53 0 19.823-5.298 25.358-13.374l0.068-0.105 481.92-481.067c5.43-5.473 8.786-13.011 8.786-21.333s-3.356-15.86-8.788-21.335l-481.278-481.705c-5.512-5.524-13.128-8.946-21.544-8.96h-0.003z" />
<glyph unicode="&#xe91d;" glyph-name="osc_table-prev" data-tags="osc_table-prev" d="M752.213-60.587c-8.341 0.074-15.871 3.485-21.333 8.959l-480.001 480.001c-5.494 5.451-8.91 12.988-8.96 21.324v0.009c0.024 8.35 3.447 15.895 8.957 21.33l0.003 0.003 479.787 480.427c4.831 3.315 10.805 5.294 17.241 5.294 16.966 0 30.72-13.754 30.72-30.72 0-6.436-1.979-12.41-5.362-17.346l0.068 0.105-457.6-458.88 458.24-458.24c5.458-5.542 8.828-13.153 8.828-21.552 0-16.77-13.437-30.401-30.132-30.714h-0.029z" />
<glyph unicode="&#xe91e;" glyph-name="osc_user" data-tags="osc_user" d="M512 391.040c128 0 231.253 125.227 231.253 284.587s-105.173 284.373-231.253 284.373-232.107-125.227-232.107-284.373 104.107-284.587 232.107-284.587zM655.36 311.467c-42.071-21.526-91.776-34.14-144.427-34.14s-102.355 12.615-146.256 34.986l1.829-0.846c-96.862-28.875-179.036-82.284-242.107-153.082l-0.453-0.518c-8.947-9.725-14.432-22.758-14.432-37.071 0-17.099 7.828-32.371 20.096-42.425l0.097-0.077c102.171-87.852 235.89-141.58 382.142-142.293l0.151-0.001c146.090 0.99 279.455 54.667 382.227 142.954l-0.787-0.661c13.548 9.257 22.324 24.631 22.324 42.054 0 14.844-6.37 28.2-16.525 37.484l-0.039 0.035c-62.92 72.721-145.926 126.494-240.382 152.779l-3.458 0.821z" />
<glyph unicode="&#xe91f;" glyph-name="osc_view-max" data-tags="osc_view-max" d="M938.667 960h-853.333c-47.128 0-85.333-38.205-85.333-85.333v0-853.333c0-47.128 38.205-85.333 85.333-85.333v0h853.333c47.128 0 85.333 38.205 85.333 85.333v0 853.333c0 47.128-38.205 85.333-85.333 85.333v0zM85.333 899.627h853.333c13.598-0.352 24.515-11.344 24.746-24.938v-330.902h-903.040v330.88c0.12 13.737 11.223 24.84 24.949 24.96h0.011z" />
<glyph unicode="&#xe920;" glyph-name="osc_view-middle" data-tags="osc_view-middle" d="M938.667 960h-853.333c-47.128 0-85.333-38.205-85.333-85.333v0-853.333c0-47.128 38.205-85.333 85.333-85.333v0h853.333c47.128 0 85.333 38.205 85.333 85.333v0 853.333c0 47.128-38.205 85.333-85.333 85.333v0zM938.667-3.627h-853.333c-13.737 0.12-24.84 11.223-24.96 24.949v469.344h903.040v-469.333c-0.232-13.616-11.149-24.608-24.714-24.959l-0.033-0.001z" />
<glyph unicode="&#xe921;" glyph-name="osc_view-minimum" data-tags="osc_view-minimum" d="M938.667 960h-853.333c-47.128 0-85.333-38.205-85.333-85.333v0-853.333c0-47.128 38.205-85.333 85.333-85.333v0h853.333c47.128 0 85.333 38.205 85.333 85.333v0 853.333c0 47.128-38.205 85.333-85.333 85.333v0zM938.667-3.627h-853.333c-13.737 0.12-24.84 11.223-24.96 24.949v331.104h903.040v-331.093c-0.232-13.616-11.149-24.608-24.714-24.959l-0.033-0.001z" />
<glyph unicode="&#xe922;" glyph-name="osc_was" data-tags="osc_was" d="M1014.827-13.227l-234.667 234.667c68.464 78.094 110.229 181.082 110.229 293.824 0 246.717-200.003 446.72-446.72 446.72s-446.72-200.003-446.72-446.72c0-246.717 200.003-446.72 446.72-446.72 112.743 0 215.73 41.765 294.335 110.668l-0.511-0.439 234.667-234.667c5.469-5.407 12.991-8.747 21.294-8.747 0.014 0 0.028 0 0.042 0h-0.002c16.656 0.099 30.12 13.623 30.12 30.293 0 8.322-3.356 15.861-8.788 21.336l0.002-0.002zM445.013 128c-211.948 0.172-383.698 172.029-383.698 384 0 212.077 171.923 384 384 384s384-171.923 384-384c0-105.955-42.913-201.887-112.306-271.364l0.004 0.004c-69.215-69.58-165.030-112.642-270.902-112.642-0.386 0-0.772 0.001-1.157 0.002h0.060zM674.347 649.173c-3.375 1.411-7.296 2.231-11.409 2.231-12.613 0-23.425-7.708-27.983-18.67l-0.074-0.201-80.213-198.187-81.067 198.187c-4.584 11.177-15.353 18.919-27.938 18.987h-0.009c-12.594-0.068-23.363-7.81-27.873-18.785l-0.073-0.202-81.067-198.187-80.64 198.187c-4.773 10.84-15.422 18.271-27.806 18.271-16.731 0-30.293-13.563-30.293-30.293 0-3.884 0.731-7.598 2.063-11.010l-0.071 0.206 109.013-266.667c4.693-11.053 15.417-18.683 27.935-18.773h0.012c0.022 0 0.047 0 0.073 0 12.537 0 23.283 7.67 27.801 18.574l0.073 0.199 81.067 198.187 81.067-198.187c4.697-11.019 15.436-18.603 27.947-18.603s23.25 7.584 27.872 18.405l0.075 0.198 109.013 266.667c1.338 3.295 2.115 7.117 2.115 11.12 0 12.891-8.052 23.902-19.401 28.276l-0.207 0.070z" />
<glyph unicode="&#xe923;" glyph-name="osc_x" data-tags="osc_x" d="M556.373 448l458.88 458.667c5.651 5.651 9.146 13.457 9.146 22.080 0 17.246-13.98 31.226-31.226 31.226-8.623 0-16.429-3.495-22.080-9.146v0l-459.093-458.667-458.453 458.453c-5.608 5.658-13.381 9.161-21.973 9.161s-16.366-3.503-21.971-9.159l-0.002-0.002c-5.722-5.618-9.269-13.435-9.269-22.080s3.547-16.462 9.264-22.075l458.458-458.458-458.88-458.667c-5.619-5.665-9.091-13.467-9.091-22.080s3.472-16.415 9.093-22.082l-0.002 0.002c5.435-5.554 12.964-9.038 21.308-9.173h0.025c8.36 0.184 15.875 3.657 21.331 9.171l0.003 0.003 460.16 458.667 458.667-458.24c5.458-5.517 12.973-8.99 21.299-9.173l0.034-0.001c8.369 0.135 15.899 3.62 21.328 9.168l0.005 0.005c5.658 5.608 9.161 13.381 9.161 21.973s-3.503 16.366-9.159 21.971l-0.002 0.002z" />
</font>
</defs>
</svg>
